<svg width="13" height="13" viewBox="0 0 13 13" fill="none" xmlns="http://www.w3.org/2000/svg">
<path d="M11.5142 5.93779C11.771 6.27362 11.771 6.727 11.5142 7.06229C10.7055 8.118 8.76528 10.2917 6.50003 10.2917C4.23478 10.2917 2.29453 8.118 1.48582 7.06229C1.3609 6.90149 1.29309 6.70366 1.29309 6.50004C1.29309 6.29642 1.3609 6.09859 1.48582 5.93779C2.29453 4.88208 4.23478 2.70837 6.50003 2.70837C8.76528 2.70837 10.7055 4.88208 11.5142 5.93779Z" stroke="#B6B6B6" stroke-width="1.08333" stroke-linecap="round" stroke-linejoin="round"/>
<path d="M6.5 8.125C7.39746 8.125 8.125 7.39746 8.125 6.5C8.125 5.60254 7.39746 4.875 6.5 4.875C5.60254 4.875 4.875 5.60254 4.875 6.5C4.875 7.39746 5.60254 8.125 6.5 8.125Z" stroke="#B6B6B6" stroke-width="1.08333" stroke-linecap="round" stroke-linejoin="round"/>
</svg>
