<svg width="28" height="33" viewBox="0 0 28 33" fill="none" xmlns="http://www.w3.org/2000/svg">
<mask id="mask0_2376_301" style="mask-type:luminance" maskUnits="userSpaceOnUse" x="0" y="0" width="28" height="33">
<path d="M27.8274 0H0V33H27.8274V0Z" fill="white"/>
</mask>
<g mask="url(#mask0_2376_301)">
<path d="M23.2005 31.68C21.4093 33.4157 19.4329 33.1453 17.5491 32.3267C15.5463 31.4918 13.7154 31.4391 11.6003 32.3267C8.96625 33.462 7.56827 33.132 5.98191 31.68C-2.97442 22.473 -1.65245 8.44796 8.5267 7.91996C10.9955 8.05196 12.7239 9.28286 14.1781 9.38516C16.3395 8.94626 18.4084 7.68896 20.7218 7.85396C23.5012 8.07836 25.5801 9.17396 26.9681 11.1441C21.2506 14.5761 22.6057 22.1001 27.8573 24.2121C26.8061 26.9676 25.4577 29.6901 23.1973 31.7031L23.2005 31.68ZM13.9798 7.82096C13.7121 3.72896 17.0336 0.362959 20.854 0.032959C21.3795 4.75196 16.5577 8.28296 13.9798 7.82096Z" fill="white"/>
</g>
</svg>
