<svg xmlns="http://www.w3.org/2000/svg" xmlns:xlink="http://www.w3.org/1999/xlink" version="1.1" x="0px" y="0px" viewBox="0 0 100 125" enable-background="new 0 0 100 100" xml:space="preserve"><path d="M51.501,72.986c0-0.827-0.671-1.5-1.5-1.5H28.515V28.513h21.486c0.829,0,1.5-0.671,1.5-1.5c0-0.829-0.671-1.5-1.5-1.5  H27.015c-0.828,0-1.5,0.671-1.5,1.5v45.976c0,0.828,0.672,1.5,1.5,1.5h22.986C50.83,74.486,51.501,73.814,51.501,72.986z   M59.964,38.477c0,0.384,0.146,0.768,0.438,1.061l8.964,8.963h-30.86c-0.828,0-1.5,0.671-1.5,1.5c0,0.829,0.672,1.5,1.5,1.5h30.86  l-8.993,8.992c-0.293,0.293-0.439,0.677-0.439,1.062c0,0.383,0.146,0.768,0.439,1.061c0.585,0.586,1.535,0.586,2.121,0  l11.553-11.553c0.141-0.141,0.25-0.308,0.327-0.492c0.003-0.008,0.004-0.016,0.007-0.022c0.067-0.169,0.105-0.354,0.105-0.547  s-0.039-0.378-0.105-0.548c-0.003-0.007-0.004-0.015-0.007-0.022c-0.077-0.186-0.188-0.353-0.328-0.493L62.523,37.416  c-0.586-0.586-1.535-0.586-2.121,0C60.109,37.708,59.964,38.092,59.964,38.477z"/></svg>