<svg width="214" height="285" viewBox="0 0 214 285" fill="none" xmlns="http://www.w3.org/2000/svg">
<rect width="33" height="33" fill="#F2F2F2"/>
<rect x="45" width="33" height="33" fill="#F2F2F2"/>
<rect x="136" width="33" height="33" fill="#F2F2F2"/>
<rect x="181" width="33" height="33" fill="#F2F2F2"/>
<rect x="91" width="32" height="33" fill="#F2F2F2"/>
<rect y="63" width="33" height="33" fill="#F2F2F2"/>
<rect x="45" y="63" width="33" height="33" fill="#4686CD"/>
<rect x="136" y="63" width="33" height="33" fill="#4686CD"/>
<rect x="181" y="63" width="33" height="33" fill="#F2F2F2"/>
<rect x="91" y="63" width="32" height="33" fill="#4686CD"/>
<rect y="126" width="33" height="33" fill="#F2F2F2"/>
<rect x="45" y="126" width="33" height="33" fill="#F2F2F2"/>
<rect x="136" y="126" width="33" height="33" fill="#F2F2F2"/>
<rect x="181" y="126" width="33" height="33" fill="#4686CD"/>
<rect x="91" y="126" width="32" height="33" fill="#F2F2F2"/>
<rect y="189" width="33" height="33" fill="#4686CD"/>
<rect x="45" y="189" width="33" height="33" fill="#F2F2F2"/>
<rect x="136" y="189" width="33" height="33" fill="#4686CD"/>
<rect x="181" y="189" width="33" height="33" fill="#F2F2F2"/>
<rect x="91" y="189" width="32" height="33" fill="#F2F2F2"/>
<rect y="252" width="33" height="33" fill="#F2F2F2"/>
<rect x="45" y="252" width="33" height="33" fill="#F2F2F2"/>
<rect x="136" y="252" width="33" height="33" fill="#4686CD"/>
<rect x="181" y="252" width="33" height="33" fill="#F2F2F2"/>
<rect x="91" y="252" width="32" height="33" fill="#F2F2F2"/>
</svg>
