<svg width="194" height="194" viewBox="0 0 194 194" fill="none" xmlns="http://www.w3.org/2000/svg">
<g id="Group 3">
<path id="Rectangle 5" d="M0 15.9546C0 7.14313 7.16996 0 16.0146 0H121.711C130.555 0 137.725 7.14313 137.725 15.9546V80.3049C137.725 89.1164 130.555 96.2595 121.711 96.2595H16.0146C7.16996 96.2595 0 89.1164 0 80.3049V15.9546Z" fill="#134D80"/>
<path id="Rectangle 6" d="M194 15.9546C194 7.14313 186.732 0 177.767 0H153.958C144.993 0 137.725 7.14313 137.725 15.9546V80.3049C137.725 89.1164 144.993 96.2595 153.958 96.2595H177.767C186.732 96.2595 194 89.1164 194 80.3049V15.9546Z" fill="#4686CD"/>
<path id="Rectangle 7" d="M194 177.8C194 186.747 186.805 194 177.93 194L59.0161 194C50.1412 194 42.9466 186.747 42.9466 177.8L42.9466 112.46C42.9466 103.513 50.1412 96.2596 59.0161 96.2596L177.93 96.2595C186.805 96.2595 194 103.513 194 112.46L194 177.8Z" fill="#DDE9ED"/>
<path id="Rectangle 8" d="M-1.41626e-06 177.8C-6.34079e-07 186.747 7.21044 194 16.105 194L26.8416 194C35.7361 194 42.9466 186.747 42.9466 177.8L42.9466 112.46C42.9466 103.513 35.7361 96.2595 26.8416 96.2595L16.105 96.2596C7.21043 96.2596 -7.91066e-06 103.513 -7.12849e-06 112.46L-1.41626e-06 177.8Z" fill="#93A8D0"/>
</g>
</svg>
