<svg width="14" height="14" viewBox="0 0 14 14" fill="none" xmlns="http://www.w3.org/2000/svg">
<path fill-rule="evenodd" clip-rule="evenodd" d="M0 3.60729C0 3.18101 0.17779 2.77219 0.494257 2.47076C0.810725 2.16934 1.23995 2 1.6875 2H7.3125C7.76005 2 8.18928 2.16934 8.50574 2.47076C8.82221 2.77219 9 3.18101 9 3.60729V12.1945C9 12.8481 8.22375 13.2285 7.66575 12.8486L4.5 10.6949L1.33425 12.8486C0.775688 13.229 0 12.8486 0 12.195V3.60729ZM1.6875 3.07152C1.53832 3.07152 1.39524 3.12797 1.28975 3.22844C1.18426 3.32892 1.125 3.46519 1.125 3.60729V11.6742L4.0095 9.71175C4.15262 9.61436 4.32411 9.56201 4.5 9.56201C4.67589 9.56201 4.84738 9.61436 4.9905 9.71175L7.875 11.6742V3.60729C7.875 3.46519 7.81574 3.32892 7.71025 3.22844C7.60476 3.12797 7.46168 3.07152 7.3125 3.07152H1.6875Z" fill="#B6B6B6"/>
</svg>
