<svg width="22" height="11" viewBox="0 0 22 11" fill="none" xmlns="http://www.w3.org/2000/svg">
<path d="M3.289 5.671L0.156 0.692H2.249L4.108 3.773H4.212L6.006 0.692H8.125L5.044 5.671V10H3.289V5.671ZM10.7264 3.422C11.2204 3.422 11.6711 3.50867 12.0784 3.682C12.4944 3.84667 12.8498 4.08067 13.1444 4.384C13.4478 4.67867 13.6818 5.034 13.8464 5.45C14.0198 5.866 14.1064 6.321 14.1064 6.815C14.1064 7.309 14.0198 7.764 13.8464 8.18C13.6818 8.596 13.4478 8.95567 13.1444 9.259C12.8498 9.55367 12.4944 9.78767 12.0784 9.961C11.6711 10.1257 11.2204 10.208 10.7264 10.208C10.2324 10.208 9.77742 10.1257 9.36142 9.961C8.95409 9.78767 8.59876 9.55367 8.29542 9.259C8.00076 8.95567 7.76676 8.596 7.59342 8.18C7.42876 7.764 7.34642 7.309 7.34642 6.815C7.34642 6.321 7.42876 5.866 7.59342 5.45C7.76676 5.034 8.00076 4.67867 8.29542 4.384C8.59876 4.08067 8.95409 3.84667 9.36142 3.682C9.77742 3.50867 10.2324 3.422 10.7264 3.422ZM10.7264 8.635C10.9431 8.635 11.1511 8.596 11.3504 8.518C11.5584 8.43133 11.7404 8.31 11.8964 8.154C12.0524 7.998 12.1738 7.80733 12.2604 7.582C12.3558 7.35667 12.4034 7.101 12.4034 6.815C12.4034 6.529 12.3558 6.27333 12.2604 6.048C12.1738 5.82267 12.0524 5.632 11.8964 5.476C11.7404 5.32 11.5584 5.203 11.3504 5.125C11.1511 5.03833 10.9431 4.995 10.7264 4.995C10.5011 4.995 10.2888 5.03833 10.0894 5.125C9.89009 5.203 9.71242 5.32 9.55642 5.476C9.40042 5.632 9.27476 5.82267 9.17942 6.048C9.09276 6.27333 9.04942 6.529 9.04942 6.815C9.04942 7.101 9.09276 7.35667 9.17942 7.582C9.27476 7.80733 9.40042 7.998 9.55642 8.154C9.71242 8.31 9.89009 8.43133 10.0894 8.518C10.2888 8.596 10.5011 8.635 10.7264 8.635ZM19.5442 9.168H19.4402C19.2408 9.48867 18.9722 9.74433 18.6342 9.935C18.2962 10.117 17.9105 10.208 17.4772 10.208C16.6712 10.208 16.0688 9.961 15.6702 9.467C15.2802 8.973 15.0852 8.31433 15.0852 7.491V3.63H16.7882V7.283C16.7882 7.74233 16.8878 8.08467 17.0872 8.31C17.2952 8.52667 17.5942 8.635 17.9842 8.635C18.2182 8.635 18.4218 8.58733 18.5952 8.492C18.7772 8.388 18.9288 8.25367 19.0502 8.089C19.1802 7.91567 19.2755 7.71633 19.3362 7.491C19.4055 7.257 19.4402 7.01 19.4402 6.75V3.63H21.1432V10H19.5442V9.168Z" fill="#134D80"/>
</svg>
